<svg width="25" height="20" viewBox="0 0 25 20" fill="none" xmlns="http://www.w3.org/2000/svg">
<path d="M25 5.76V15.9375C25.0001 16.9752 24.6031 17.9735 23.8904 18.7278C23.1778 19.482 22.2035 19.935 21.1675 19.9938L20.9375 20H4.0625C3.02483 20.0001 2.02646 19.6031 1.27221 18.8904C0.517958 18.1778 0.0649983 17.2035 0.00625014 16.1675L0 15.9375V5.76L12.065 12.08C12.1992 12.1503 12.3485 12.187 12.5 12.187C12.6515 12.187 12.8008 12.1503 12.935 12.08L25 5.76ZM4.0625 2.95064e-08H20.9375C21.9445 -0.000121268 22.9156 0.373744 23.6626 1.04908C24.4095 1.72442 24.879 2.6531 24.98 3.655L12.5 10.1925L0.02 3.655C0.116904 2.69289 0.553812 1.7969 1.25219 1.12808C1.95056 0.459261 2.8646 0.0614837 3.83 0.00625017L4.0625 2.95064e-08H20.9375H4.0625Z" fill="black"/>
</svg>
