<svg width="25" height="25" viewBox="0 0 25 25" fill="none" xmlns="http://www.w3.org/2000/svg">
<path d="M12.4966 8.33156C10.2014 8.33156 8.32828 10.2047 8.32828 12.5C8.32828 14.7953 10.2014 16.6684 12.4966 16.6684C14.7919 16.6684 16.665 14.7953 16.665 12.5C16.665 10.2047 14.7919 8.33156 12.4966 8.33156ZM24.9986 12.5C24.9986 10.7738 25.0142 9.0633 24.9173 7.34026C24.8204 5.33891 24.3638 3.56271 22.9004 2.09922C21.4338 0.632607 19.6607 0.179176 17.6594 0.082235C15.9333 -0.0147055 14.2228 0.000930141 12.4998 0.000930141C10.7736 0.000930141 9.06313 -0.0147055 7.34013 0.082235C5.33881 0.179176 3.56265 0.635734 2.09918 2.09922C0.632595 3.56584 0.179172 5.33891 0.0822335 7.34026C-0.0147052 9.06643 0.000930124 10.777 0.000930124 12.5C0.000930124 14.223 -0.0147052 15.9367 0.0822335 17.6597C0.179172 19.6611 0.635722 21.4373 2.09918 22.9008C3.56577 24.3674 5.33881 24.8208 7.34013 24.9178C9.06626 25.0147 10.7768 24.9991 12.4998 24.9991C14.2259 24.9991 15.9364 25.0147 17.6594 24.9178C19.6607 24.8208 21.4369 24.3643 22.9004 22.9008C24.3669 21.4342 24.8204 19.6611 24.9173 17.6597C25.0174 15.9367 24.9986 14.2262 24.9986 12.5V12.5ZM12.4966 18.9137C8.94743 18.9137 6.08305 16.0493 6.08305 12.5C6.08305 8.95073 8.94743 6.08629 12.4966 6.08629C16.0458 6.08629 18.9102 8.95073 18.9102 12.5C18.9102 16.0493 16.0458 18.9137 12.4966 18.9137ZM19.1729 7.3215C18.3442 7.3215 17.675 6.6523 17.675 5.82361C17.675 4.99493 18.3442 4.32573 19.1729 4.32573C20.0016 4.32573 20.6708 4.99493 20.6708 5.82361C20.671 6.02039 20.6324 6.21528 20.5572 6.39712C20.4821 6.57897 20.3717 6.74419 20.2326 6.88333C20.0935 7.02247 19.9282 7.1328 19.7464 7.20798C19.5646 7.28317 19.3697 7.32175 19.1729 7.3215V7.3215Z" fill="black"/>
</svg>
