<svg width="16" height="16" viewBox="0 0 16 16" fill="none" xmlns="http://www.w3.org/2000/svg">
<path d="M14.112 8.9854C13.602 9.12084 13.0766 9.1894 12.5489 9.18934C10.9422 9.18934 9.43335 8.56472 8.30001 7.43138C7.55577 6.68285 7.02072 5.75234 6.74818 4.73258C6.47565 3.71282 6.47515 2.63944 6.74674 1.61943C6.78066 1.4919 6.78044 1.35769 6.74612 1.23026C6.71179 1.10284 6.64456 0.986682 6.55117 0.893445C6.45778 0.800207 6.34151 0.733166 6.21403 0.699048C6.08655 0.66493 5.95234 0.664933 5.82487 0.699059C4.54791 1.03935 3.38288 1.70945 2.44667 2.64215C-0.486779 5.57559 -0.486779 10.3505 2.44667 13.2855C3.14392 13.9866 3.97332 14.5425 4.88684 14.921C5.80037 15.2995 6.77988 15.493 7.76871 15.4904C8.75727 15.4932 9.73655 15.2998 10.6498 14.9215C11.5631 14.5431 12.3923 13.9873 13.0892 13.2862C14.0226 12.3498 14.693 11.1842 15.0331 9.90652C15.0669 9.77904 15.0666 9.64493 15.0323 9.51759C14.998 9.39026 14.9308 9.27416 14.8376 9.18091C14.7443 9.08766 14.6282 9.02052 14.5009 8.98621C14.3735 8.9519 14.2394 8.95162 14.112 8.9854ZM12.0259 12.2221C11.4682 12.7828 10.8049 13.2274 10.0743 13.5301C9.34366 13.8327 8.56028 13.9875 7.76946 13.9853C6.97837 13.9873 6.19474 13.8324 5.46389 13.5297C4.73303 13.2269 4.06945 12.7822 3.51152 12.2214C1.16507 9.87416 1.16507 6.05421 3.51152 3.70701C3.96494 3.2541 4.48841 2.87725 5.06178 2.59097C4.97785 3.67394 5.12872 4.76226 5.50407 5.78155C5.87943 6.80085 6.47042 7.7271 7.23665 8.49699C8.00486 9.26563 8.93083 9.85826 9.95055 10.2339C10.9703 10.6095 12.0594 10.7592 13.1427 10.6726C12.8548 11.245 12.4779 11.768 12.0259 12.2221Z" fill="white"/>
</svg>
