<svg width="17" height="16" viewBox="0 0 17 16" fill="none" xmlns="http://www.w3.org/2000/svg">
<path fill-rule="evenodd" clip-rule="evenodd" d="M9.31019 0.974503C9.31019 0.560289 8.97441 0.224503 8.56019 0.224503C8.14598 0.224503 7.81019 0.560289 7.81019 0.974503V2.03004C7.81019 2.44426 8.14598 2.78004 8.56019 2.78004C8.97441 2.78004 9.31019 2.44426 9.31019 2.03004V0.974503ZM3.54894 2.02748C3.25605 1.73459 2.78117 1.73459 2.48828 2.02748C2.19539 2.32037 2.19539 2.79525 2.48828 3.08814L3.01605 3.61591C3.30894 3.9088 3.78382 3.9088 4.07671 3.61591C4.3696 3.32302 4.3696 2.84814 4.07671 2.55525L3.54894 2.02748ZM14.6321 3.08814C14.925 2.79525 14.925 2.32037 14.6321 2.02748C14.3392 1.73459 13.8643 1.73459 13.5714 2.02748L13.0437 2.55525C12.7508 2.84814 12.7508 3.32302 13.0437 3.61591C13.3366 3.9088 13.8114 3.9088 14.1043 3.61591L14.6321 3.08814ZM1.4353 7.34939C1.02109 7.34939 0.685303 7.68518 0.685303 8.09939C0.685303 8.51361 1.02109 8.84939 1.4353 8.84939H2.49084C2.90506 8.84939 3.24084 8.51361 3.24084 8.09939C3.24084 7.68518 2.90506 7.34939 2.49084 7.34939H1.4353ZM14.6295 7.34939C14.2153 7.34939 13.8795 7.68518 13.8795 8.09939C13.8795 8.51361 14.2153 8.84939 14.6295 8.84939H15.6851C16.0993 8.84939 16.4351 8.51361 16.4351 8.09939C16.4351 7.68518 16.0993 7.34939 15.6851 7.34939H14.6295ZM4.07671 13.6435C4.3696 13.3506 4.3696 12.8758 4.07671 12.5829C3.78382 12.29 3.30894 12.29 3.01605 12.5829L2.48828 13.1106C2.19539 13.4035 2.19539 13.8784 2.48828 14.1713C2.78117 14.4642 3.25605 14.4642 3.54894 14.1713L4.07671 13.6435ZM14.1043 12.5829C13.8114 12.29 13.3366 12.29 13.0437 12.5829C12.7508 12.8758 12.7508 13.3506 13.0437 13.6435L13.5714 14.1713C13.8643 14.4642 14.3392 14.4642 14.6321 14.1713C14.925 13.8784 14.925 13.4035 14.6321 13.1106L14.1043 12.5829ZM9.31019 14.1687C9.31019 13.7545 8.97441 13.4187 8.56019 13.4187C8.14598 13.4187 7.81019 13.7545 7.81019 14.1687V15.2243C7.81019 15.6385 8.14598 15.9743 8.56019 15.9743C8.97441 15.9743 9.31019 15.6385 9.31019 15.2243V14.1687ZM5.87927 8.09941C5.87927 6.61901 7.07937 5.41891 8.55977 5.41891C10.0402 5.41891 11.2403 6.61901 11.2403 8.09941C11.2403 9.57981 10.0402 10.7799 8.55977 10.7799C7.07937 10.7799 5.87927 9.57981 5.87927 8.09941ZM8.55977 3.91891C6.25094 3.91891 4.37927 5.79059 4.37927 8.09941C4.37927 10.4082 6.25094 12.2799 8.55977 12.2799C10.8686 12.2799 12.7403 10.4082 12.7403 8.09941C12.7403 5.79059 10.8686 3.91891 8.55977 3.91891Z" fill="white"/>
</svg>
