<svg width="25" height="25" viewBox="0 0 25 25" fill="none" xmlns="http://www.w3.org/2000/svg">
<path d="M23.6111 11.1111C23.2428 11.1111 22.8895 11.2574 22.629 11.5179C22.3685 11.7784 22.2222 12.1316 22.2222 12.5V20.8333C22.2222 21.2017 22.0759 21.555 21.8154 21.8154C21.555 22.0759 21.2017 22.2222 20.8333 22.2222H4.16667C3.79831 22.2222 3.44504 22.0759 3.18457 21.8154C2.92411 21.555 2.77778 21.2017 2.77778 20.8333V4.16667C2.77778 3.79831 2.92411 3.44504 3.18457 3.18457C3.44504 2.92411 3.79831 2.77778 4.16667 2.77778H12.5C12.8684 2.77778 13.2216 2.63145 13.4821 2.37098C13.7426 2.11051 13.8889 1.75725 13.8889 1.38889C13.8889 1.02053 13.7426 0.667263 13.4821 0.406796C13.2216 0.146329 12.8684 0 12.5 0H4.16667C3.0616 0 2.00179 0.438987 1.22039 1.22039C0.438987 2.00179 0 3.0616 0 4.16667V20.8333C0 21.9384 0.438987 22.9982 1.22039 23.7796C2.00179 24.561 3.0616 25 4.16667 25H20.8333C21.9384 25 22.9982 24.561 23.7796 23.7796C24.561 22.9982 25 21.9384 25 20.8333V12.5C25 12.1316 24.8537 11.7784 24.5932 11.5179C24.3327 11.2574 23.9795 11.1111 23.6111 11.1111Z" fill="black"/>
<path d="M18.0555 2.77778H20.25L11.5139 11.5C11.3837 11.6291 11.2804 11.7827 11.2098 11.952C11.1393 12.1212 11.103 12.3028 11.103 12.4861C11.103 12.6695 11.1393 12.851 11.2098 13.0202C11.2804 13.1895 11.3837 13.3431 11.5139 13.4722C11.643 13.6024 11.7966 13.7057 11.9658 13.7762C12.1351 13.8467 12.3166 13.8831 12.5 13.8831C12.6833 13.8831 12.8649 13.8467 13.0341 13.7762C13.2034 13.7057 13.357 13.6024 13.4861 13.4722L22.2222 4.75V6.94444C22.2222 7.3128 22.3685 7.66607 22.629 7.92654C22.8895 8.187 23.2427 8.33333 23.6111 8.33333C23.9794 8.33333 24.3327 8.187 24.5932 7.92654C24.8536 7.66607 25 7.3128 25 6.94444V1.38889C25 1.02053 24.8536 0.667263 24.5932 0.406796C24.3327 0.146329 23.9794 0 23.6111 0H18.0555C17.6872 0 17.3339 0.146329 17.0734 0.406796C16.813 0.667263 16.6666 1.02053 16.6666 1.38889C16.6666 1.75725 16.813 2.11051 17.0734 2.37098C17.3339 2.63145 17.6872 2.77778 18.0555 2.77778V2.77778Z" fill="black"/>
</svg>
