<svg width="25" height="21" viewBox="0 0 25 21" fill="none" xmlns="http://www.w3.org/2000/svg">
<path d="M25 2.41073C24.0806 2.81811 23.093 3.09337 22.0547 3.21778C23.126 2.57675 23.9275 1.56785 24.3097 0.379325C23.3031 0.977173 22.2016 1.39799 21.0528 1.62349C20.2803 0.798669 19.2571 0.251965 18.142 0.0682555C17.027 -0.115454 15.8825 0.0741102 14.8862 0.607517C13.8899 1.14092 13.0976 1.98833 12.6323 3.01817C12.167 4.04801 12.0547 5.20267 12.3128 6.30287C10.2734 6.20047 8.27824 5.67038 6.45691 4.74701C4.63558 3.82364 3.02876 2.52761 1.74073 0.943053C1.30032 1.70276 1.04708 2.58359 1.04708 3.52167C1.04659 4.36615 1.25455 5.1977 1.65251 5.94254C2.05048 6.68737 2.62614 7.32247 3.32842 7.79146C2.51396 7.76555 1.71747 7.54548 1.00524 7.14956V7.21562C1.00516 8.40005 1.41486 9.54802 2.16483 10.4648C2.91479 11.3815 3.95883 12.0105 5.11979 12.2451C4.36425 12.4496 3.57211 12.4797 2.80322 12.3332C3.13078 13.3523 3.76882 14.2435 4.62804 14.882C5.48725 15.5205 6.52462 15.8743 7.59491 15.8939C5.77803 17.3202 3.53418 18.0939 1.22435 18.0905C0.815182 18.0906 0.406364 18.0667 0 18.0189C2.34462 19.5264 5.07392 20.3265 7.86136 20.3234C17.2972 20.3234 22.4555 12.5083 22.4555 5.73033C22.4555 5.51013 22.45 5.28772 22.4401 5.06751C23.4435 4.34191 24.3096 3.44338 24.9978 2.41403L25 2.41073V2.41073Z" fill="black"/>
</svg>
